<svg viewBox="0 0 40 40" fill="none" xmlns="http://www.w3.org/2000/svg">
<style>
  :root {
    --color-N600: #0f1e57;
    --color-brand: #e4002b;
    --color-blue-light: #e5eaff;
  }
  @media (prefers-color-scheme: dark) {
    :root {
      --color-N600: #e5eaff;
      --color-blue-light: #0e41aa;
    }
  }
</style>
<path d="M20 31.25C25.6609 31.25 30.25 26.6609 30.25 21C30.25 15.3391 25.6609 10.75 20 10.75C14.3391 10.75 9.75 15.3391 9.75 21C9.75 26.6609 14.3391 31.25 20 31.25Z" fill="var(--color-blue-light, #e5eaff)"/>
<path d="M4.50863 21.0954C4.50863 14.7529 8.53164 8.87568 14.5259 6.46816C14.9081 6.31642 15.0992 5.87133 14.9483 5.47682C14.7975 5.09243 14.3549 4.90023 13.9627 5.05197C7.40519 7.69215 3 14.1358 3 21.0852C3 21.9957 3.08046 23.3714 3.25144 24.3728C3.31178 24.7471 3.63363 25 3.9957 25C4.03593 25 4.07616 25 4.12644 24.9899C4.5388 24.9191 4.81036 24.5246 4.73995 24.1098C4.57903 23.2095 4.50863 21.9451 4.50863 21.0954Z" fill="var(--color-brand, #e4002b)"/>
<path d="M9.16861 33.2816C8.90425 33.5968 8.95509 34.0598 9.29062 34.3159C12.3408 36.6899 16.1841 38 20.1087 38C24.8264 38 28.4765 36.0003 30.7032 34.3257C31.0387 34.0795 31.0997 33.6066 30.8353 33.2914C30.5811 32.9663 30.0931 32.9072 29.7677 33.1634C27.7241 34.7 24.3994 36.5224 20.1087 36.5224C16.479 36.5224 13.0729 35.36 10.2464 33.1634C9.91083 32.9072 9.43296 32.9565 9.16861 33.2816Z" fill="var(--color-brand, #e4002b)"/>
<path d="M26.0186 5.05181C25.6396 4.90016 25.2007 5.09226 25.0511 5.48657C24.9015 5.88088 25.091 6.31564 25.48 6.4673C31.4844 8.82306 35.5139 14.6973 35.5139 21.0872C35.5139 22.0983 35.4141 23.1093 35.2246 24.1002C35.1448 24.5147 35.4141 24.909 35.8131 24.9899C35.8629 25 35.9128 25 35.9527 25C36.3018 25 36.621 24.7472 36.6908 24.3833C36.9002 23.3014 37 22.1893 37 21.0872C37.01 14.0806 32.5915 7.64012 26.0186 5.05181Z" fill="var(--color-brand, #e4002b)"/>
<path d="M20 32C26.07 32 31 27.07 31 21C31 14.94 26.07 10 20 10C13.93 10 9 14.93 9 21C9 27.06 13.94 32 20 32ZM10.81 23.35C12.04 24.15 13.89 24.72 15.97 25.03C16.28 27.11 16.85 28.96 17.65 30.19C14.3 29.33 11.67 26.7 10.81 23.35ZM20 11.74C20.83 11.74 21.93 13.62 22.48 16.79C21.66 16.72 20.83 16.68 20 16.68C19.17 16.68 18.34 16.72 17.52 16.79C18.07 13.62 19.17 11.74 20 11.74ZM20 18.17C20.96 18.17 21.85 18.22 22.69 18.31C22.78 19.14 22.83 20.04 22.83 21C22.83 21.96 22.78 22.85 22.69 23.69C21.86 23.78 20.96 23.83 20 23.83C19.04 23.83 18.15 23.78 17.31 23.69C17.22 22.86 17.17 21.96 17.17 21C17.17 20.04 17.22 19.15 17.31 18.31C18.15 18.22 19.04 18.17 20 18.17ZM24.21 18.52C27.38 19.07 29.26 20.17 29.26 21C29.26 21.83 27.38 22.93 24.21 23.48C24.28 22.66 24.32 21.83 24.32 21C24.33 20.17 24.29 19.33 24.21 18.52ZM20 30.26C19.17 30.26 18.07 28.38 17.52 25.21C18.34 25.28 19.17 25.32 20 25.32C20.83 25.32 21.66 25.28 22.48 25.21C21.93 28.38 20.83 30.26 20 30.26ZM15.79 23.48C12.62 22.93 10.74 21.83 10.74 21C10.74 20.17 12.62 19.07 15.79 18.52C15.72 19.33 15.68 20.17 15.68 21C15.68 21.83 15.72 22.66 15.79 23.48ZM22.36 30.19C23.16 28.96 23.73 27.11 24.04 25.03C26.12 24.72 27.97 24.15 29.2 23.35C28.34 26.7 25.7 29.33 22.36 30.19ZM29.19 18.64C27.96 17.84 26.11 17.27 24.03 16.96C23.72 14.88 23.15 13.03 22.35 11.8C25.7 12.66 28.34 15.3 29.19 18.64ZM17.65 11.81C16.85 13.04 16.28 14.89 15.97 16.97C13.89 17.28 12.04 17.85 10.81 18.65C11.67 15.3 14.3 12.66 17.65 11.81Z" fill="var(--color-N600, #0f1e57)"/>
<path d="M20 7C21.1046 7 22 6.10457 22 5C22 3.89543 21.1046 3 20 3C18.8954 3 18 3.89543 18 5C18 6.10457 18.8954 7 20 7Z" fill="var(--color-N600, #0f1e57)"/>
<path d="M34 31C35.1046 31 36 30.1046 36 29C36 27.8954 35.1046 27 34 27C32.8954 27 32 27.8954 32 29C32 30.1046 32.8954 31 34 31Z" fill="var(--color-N600, #0f1e57)"/>
<path d="M6 31C7.10457 31 8 30.1046 8 29C8 27.8954 7.10457 27 6 27C4.89543 27 4 27.8954 4 29C4 30.1046 4.89543 31 6 31Z" fill="var(--color-N600, #0f1e57)"/>
</svg>
